<svg width="25" height="24" viewBox="0 0 25 24" fill="none" xmlns="http://www.w3.org/2000/svg">
  <path
    d="M1.73804 24C1.28155 24 0.838466 23.8172 0.508321 23.4909C0.131261 23.1119 -0.0515252 22.5798 0.0126124 22.0478L0.755215 16.0733C0.803064 15.6905 0.977237 15.3326 1.25092 15.0598L14.7703 1.54241C16.8278 -0.514136 20.406 -0.514136 22.4617 1.54241C24.5785 3.6602 24.5785 7.11024 22.4607 9.22889L8.94134 22.7483C8.66859 23.021 8.31165 23.1952 7.9279 23.2421L1.95438 23.9856C1.88069 23.9943 1.80885 24 1.73804 24ZM4.12952 17.0926L3.7362 20.2639L6.90756 19.8706L20.0038 6.77531C20.7694 6.00973 20.7694 4.76375 20.0038 3.99814C19.2612 3.25455 17.9703 3.25553 17.2286 3.99814L4.12952 17.0926Z"
    fill="black" />
</svg>