<svg width="215" height="179" viewBox="0 0 215 179" fill="none" xmlns="http://www.w3.org/2000/svg">
  <path
    d="M37.1534 143.154L54.557 171.307C54.557 171.307 159.498 180.517 182.131 159.452C204.763 138.386 212.81 104.106 209.154 75.3801C208.592 70.967 207.316 66.269 205.473 61.4778M37.1534 143.154C37.1534 143.154 117.869 145.513 144.726 143.154C171.584 140.795 182.131 88.0682 182.131 88.0682H152.833M37.1534 143.154L76.5625 32.6974H29.1073L10 5.85693H85.486C85.486 5.85693 124.892 5.85693 148.221 5.85693C167.965 5.85693 195.318 35.0819 205.473 61.4778M152.833 88.0682C152.833 88.0682 145.3 113.339 141.951 116.018C140.144 117.464 93.3294 116.43 76.7353 116.018M152.833 88.0682H87.3245L76.7353 116.018M78.1669 116.018L76.7353 116.018M189.334 33.8171H105.1L96.0368 61.4778L205.473 61.4778"
    stroke="white" stroke-width="10" />
  <path
    d="M37.1534 143.154L54.557 171.307C54.557 171.307 159.498 180.517 182.131 159.452C204.763 138.386 212.81 104.106 209.154 75.3801C208.592 70.967 207.316 66.269 205.473 61.4778M37.1534 143.154C37.1534 143.154 117.869 145.513 144.726 143.154C171.584 140.795 182.131 88.0682 182.131 88.0682H152.833M37.1534 143.154L76.5625 32.6974H29.1073L10 5.85693H85.486C85.486 5.85693 124.892 5.85693 148.221 5.85693C167.965 5.85693 195.318 35.0819 205.473 61.4778M152.833 88.0682C152.833 88.0682 145.3 113.339 141.951 116.018C140.144 117.464 93.3294 116.43 76.7353 116.018M152.833 88.0682H87.3245L76.7353 116.018M78.1669 116.018L76.7353 116.018M189.334 33.8171H105.1L96.0368 61.4778L205.473 61.4778"
    stroke="white" stroke-width="10" />
  <path
    d="M37.1534 143.154L54.557 171.307C54.557 171.307 159.498 180.517 182.131 159.452C204.763 138.386 212.81 104.106 209.154 75.3801C208.592 70.967 207.316 66.269 205.473 61.4778M37.1534 143.154C37.1534 143.154 117.869 145.513 144.726 143.154C171.584 140.795 182.131 88.0682 182.131 88.0682H152.833M37.1534 143.154L76.5625 32.6974H29.1073L10 5.85693H85.486C85.486 5.85693 124.892 5.85693 148.221 5.85693C167.965 5.85693 195.318 35.0819 205.473 61.4778M152.833 88.0682C152.833 88.0682 145.3 113.339 141.951 116.018C140.144 117.464 93.3294 116.43 76.7353 116.018M152.833 88.0682H87.3245L76.7353 116.018M78.1669 116.018L76.7353 116.018M189.334 33.8171H105.1L96.0368 61.4778L205.473 61.4778"
    stroke="white" stroke-width="10" />
  <path
    d="M37.1534 143.154L54.557 171.307C54.557 171.307 159.498 180.517 182.131 159.452C204.763 138.386 212.81 104.106 209.154 75.3801C208.592 70.967 207.316 66.269 205.473 61.4778M37.1534 143.154C37.1534 143.154 117.869 145.513 144.726 143.154C171.584 140.795 182.131 88.0682 182.131 88.0682H152.833M37.1534 143.154L76.5625 32.6974H29.1073L10 5.85693H85.486C85.486 5.85693 124.892 5.85693 148.221 5.85693C167.965 5.85693 195.318 35.0819 205.473 61.4778M152.833 88.0682C152.833 88.0682 145.3 113.339 141.951 116.018C140.144 117.464 93.3294 116.43 76.7353 116.018M152.833 88.0682H87.3245L76.7353 116.018M78.1669 116.018L76.7353 116.018M189.334 33.8171H105.1L96.0368 61.4778L205.473 61.4778"
    stroke="white" stroke-width="10" />
  <path
    d="M37.1534 143.154L54.557 171.307C54.557 171.307 159.498 180.517 182.131 159.452C204.763 138.386 212.81 104.106 209.154 75.3801C208.592 70.967 207.316 66.269 205.473 61.4778M37.1534 143.154C37.1534 143.154 117.869 145.513 144.726 143.154C171.584 140.795 182.131 88.0682 182.131 88.0682H152.833M37.1534 143.154L76.5625 32.6974H29.1073L10 5.85693H85.486C85.486 5.85693 124.892 5.85693 148.221 5.85693C167.965 5.85693 195.318 35.0819 205.473 61.4778M152.833 88.0682C152.833 88.0682 145.3 113.339 141.951 116.018C140.144 117.464 93.3294 116.43 76.7353 116.018M152.833 88.0682H87.3245L76.7353 116.018M78.1669 116.018L76.7353 116.018M189.334 33.8171H105.1L96.0368 61.4778L205.473 61.4778"
    stroke="black" stroke-width="10" />
</svg>